<svg width="46" height="45" fill="none" xmlns="http://www.w3.org/2000/svg"><path d="M23.515 1.508A21 21 0 113.164 15.404" stroke="#FF8D30" stroke-width="3" stroke-linecap="round"/><path d="M22.933 25.797c0 1.504-.569 2.744-1.704 3.72-1.12.976-2.56 1.464-4.32 1.464-1.744 0-3.192-.48-4.344-1.44-1.136-.96-1.704-2.176-1.704-3.648 0-1.68.791-3.032 2.375-4.056-1.184-.896-1.776-2.064-1.776-3.504 0-1.424.52-2.56 1.56-3.408 1.04-.848 2.329-1.272 3.864-1.272 1.537 0 2.825.432 3.864 1.296 1.04.848 1.56 1.944 1.56 3.288 0 1.376-.591 2.52-1.776 3.432 1.6 1.056 2.4 2.432 2.4 4.128zM19.02 18.31c0-.512-.207-.936-.623-1.272-.4-.336-.896-.504-1.488-.504-.608 0-1.12.168-1.536.504-.4.336-.6.76-.6 1.272 0 .528.207.976.623 1.344.416.352.936.592 1.56.72.608-.144 1.105-.4 1.489-.768.383-.368.575-.8.575-1.296zm.576 7.488c0-.64-.264-1.168-.791-1.584-.512-.432-1.168-.736-1.968-.912-.785.16-1.425.464-1.92.912-.48.432-.72.96-.72 1.584 0 .64.256 1.176.768 1.608.527.432 1.175.648 1.944.648.768 0 1.408-.216 1.92-.648.511-.448.767-.984.767-1.608zm12.481-6.84c0-1.744-.736-2.616-2.208-2.616-1.472 0-2.208.872-2.208 2.616v6.768c0 .704.192 1.264.576 1.68.384.416.928.624 1.632.624.704 0 1.248-.208 1.632-.624.384-.416.576-.976.576-1.68v-6.768zm-6.36-3.936c.928-1.072 2.312-1.608 4.152-1.608 1.84 0 3.224.536 4.152 1.608.928 1.056 1.392 2.424 1.392 4.104v6.6c0 1.52-.496 2.776-1.488 3.768-.976.992-2.328 1.488-4.056 1.488-1.728 0-3.088-.496-4.08-1.488-.976-.992-1.464-2.248-1.464-3.768v-6.6c0-1.68.464-3.048 1.392-4.104z" fill="#1D2E5B"/></svg>