<svg width="60" height="60" fill="none" xmlns="http://www.w3.org/2000/svg"><circle cx="30" cy="30" r="30" fill="#000" fill-opacity=".6"/><path d="M22.55 3.01a28 28 0 109.12-.96" stroke="#FF8D30" stroke-width="4" stroke-linecap="round"/><path d="M22.904 30.312c1.04.016 1.752-.304 2.136-.96.4-.672.648-1.672.744-3-.8.48-1.664.72-2.592.72-1.552 0-2.848-.472-3.888-1.416-1.04-.96-1.56-2.312-1.56-4.056 0-1.648.496-3.016 1.488-4.104s2.408-1.632 4.248-1.632c1.072 0 1.992.2 2.76.6.768.4 1.36.984 1.776 1.752.432.768.736 1.632.912 2.592.192.96.288 2.064.288 3.312 0 2.96-.504 5.216-1.512 6.768-.992 1.552-2.496 2.328-4.512 2.328-.336 0-.704-.024-1.104-.072-.384-.032-.84-.104-1.368-.216a3.706 3.706 0 01-1.32-.6c-.352-.272-.552-.6-.6-.984-.048-.384.064-.728.336-1.032.288-.304.672-.456 1.152-.456.24 0 .632.072 1.176.216.56.144 1.04.224 1.44.24zm2.952-7.056v-.288c0-2.704-.832-4.056-2.496-4.056-.8 0-1.384.256-1.752.768-.352.496-.528 1.128-.528 1.896 0 1.664.784 2.496 2.352 2.496 1.024 0 1.832-.272 2.424-.816zm10.009 7.056c1.04.016 1.752-.304 2.136-.96.4-.672.648-1.672.744-3-.8.48-1.664.72-2.592.72-1.552 0-2.848-.472-3.888-1.416-1.04-.96-1.56-2.312-1.56-4.056 0-1.648.496-3.016 1.488-4.104s2.408-1.632 4.248-1.632c1.072 0 1.992.2 2.76.6.768.4 1.36.984 1.776 1.752.432.768.736 1.632.912 2.592.192.96.288 2.064.288 3.312 0 2.96-.504 5.216-1.512 6.768-.992 1.552-2.496 2.328-4.512 2.328-.336 0-.704-.024-1.104-.072-.384-.032-.84-.104-1.368-.216a3.706 3.706 0 01-1.32-.6c-.352-.272-.552-.6-.6-.984-.048-.384.064-.728.336-1.032.288-.304.672-.456 1.152-.456.24 0 .632.072 1.176.216.56.144 1.04.224 1.44.24zm2.952-7.056v-.288c0-2.704-.832-4.056-2.496-4.056-.8 0-1.384.256-1.752.768-.352.496-.528 1.128-.528 1.896 0 1.664.784 2.496 2.352 2.496 1.024 0 1.832-.272 2.424-.816zM18.036 48.684v-8.288c0-.15.051-.275.154-.378a.537.537 0 01.392-.168c.159 0 .29.056.392.168a.514.514 0 01.154.378v8.288c0 .308.065.527.196.658a.427.427 0 01.098.266c0 .14-.051.261-.154.364a.475.475 0 01-.35.14c-.588 0-.882-.476-.882-1.428zm5.397.462c.402 0 .887-.13 1.457-.392a.433.433 0 01.195-.042c.14 0 .257.051.35.154.094.093.14.205.14.336 0 .308-.252.537-.755.686a5.3 5.3 0 01-1.512.224c-.775 0-1.386-.215-1.834-.644-.44-.439-.659-.999-.659-1.68V45.17c0-.7.224-1.27.672-1.708.449-.439 1.079-.658 1.89-.658.757 0 1.33.205 1.723.616.4.401.601.957.601 1.666 0 1.381-.788 2.072-2.366 2.072-.457 0-.933-.042-1.428-.126v.826c0 .401.131.719.392.952.262.224.64.336 1.134.336zm1.19-4.06c0-.859-.424-1.288-1.274-1.288-.448 0-.802.117-1.064.35-.252.224-.378.532-.378.924v1.064c.486.065.976.098 1.47.098.486 0 .813-.103.98-.308.178-.215.267-.495.267-.84zm7.302-1.554l-1.904 5.922c-.149.439-.387.658-.713.658a.678.678 0 01-.448-.14c-.103-.103-.192-.27-.267-.504l-1.945-5.978a.402.402 0 01.098-.434.557.557 0 01.434-.21c.242 0 .405.121.49.364l1.637 5.278 1.61-5.278c.084-.243.248-.364.49-.364.169 0 .308.07.42.21.112.14.145.299.098.476zm3.553 5.614c.402 0 .887-.13 1.456-.392a.433.433 0 01.197-.042c.14 0 .256.051.35.154.093.093.14.205.14.336 0 .308-.253.537-.757.686a5.3 5.3 0 01-1.511.224c-.775 0-1.386-.215-1.834-.644-.44-.439-.658-.999-.658-1.68V45.17c0-.7.224-1.27.672-1.708.447-.439 1.078-.658 1.89-.658.755 0 1.33.205 1.721.616.402.401.602.957.602 1.666 0 1.381-.788 2.072-2.366 2.072a8.53 8.53 0 01-1.428-.126v.826c0 .401.131.719.392.952.262.224.64.336 1.134.336zm1.19-4.06c0-.859-.424-1.288-1.273-1.288-.449 0-.803.117-1.065.35-.252.224-.377.532-.377.924v1.064c.485.065.975.098 1.47.098.485 0 .811-.103.98-.308.177-.215.266-.495.266-.84zm2.491 3.598v-8.288c0-.15.051-.275.154-.378a.537.537 0 01.392-.168c.159 0 .29.056.392.168a.514.514 0 01.154.378v8.288c0 .308.065.527.196.658a.426.426 0 01.098.266c0 .14-.051.261-.154.364a.475.475 0 01-.35.14c-.588 0-.882-.476-.882-1.428z" fill="#fff"/><path opacity=".3" stroke="#fff" d="M15 36.5h30"/></svg>