<svg width="64" height="64" fill="none" xmlns="http://www.w3.org/2000/svg"><path d="M27.436 2.35a30 30 0 105.083-.345" stroke="#FF8D30" stroke-width="3" stroke-linecap="round"/><path d="M25.904 31.312c1.04.016 1.752-.304 2.136-.96.4-.672.648-1.672.744-3-.8.48-1.664.72-2.592.72-1.552 0-2.848-.472-3.888-1.416-1.04-.96-1.56-2.312-1.56-4.056 0-1.648.496-3.016 1.488-4.104s2.408-1.632 4.248-1.632c1.072 0 1.992.2 2.76.6.768.4 1.36.984 1.776 1.752.432.768.736 1.632.912 2.592.192.96.288 2.064.288 3.312 0 2.96-.504 5.216-1.512 6.768-.992 1.552-2.496 2.328-4.512 2.328-.336 0-.704-.024-1.104-.072-.384-.032-.84-.104-1.368-.216a3.706 3.706 0 01-1.32-.6c-.352-.272-.552-.6-.6-.984-.048-.384.064-.728.336-1.032.288-.304.672-.456 1.152-.456.24 0 .632.072 1.176.216.56.144 1.04.224 1.44.24zm2.952-7.056v-.288c0-2.704-.832-4.056-2.496-4.056-.8 0-1.384.256-1.752.768-.352.496-.528 1.128-.528 1.896 0 1.664.784 2.496 2.352 2.496 1.024 0 1.832-.272 2.424-.816zm10.01 7.056c1.04.016 1.751-.304 2.135-.96.4-.672.648-1.672.744-3-.8.48-1.664.72-2.592.72-1.552 0-2.848-.472-3.888-1.416-1.04-.96-1.56-2.312-1.56-4.056 0-1.648.496-3.016 1.488-4.104s2.408-1.632 4.248-1.632c1.072 0 1.992.2 2.76.6.768.4 1.36.984 1.776 1.752.432.768.736 1.632.912 2.592.192.96.288 2.064.288 3.312 0 2.96-.504 5.216-1.512 6.768-.992 1.552-2.496 2.328-4.512 2.328-.336 0-.704-.024-1.104-.072-.384-.032-.84-.104-1.368-.216a3.706 3.706 0 01-1.32-.6c-.352-.272-.552-.6-.6-.984-.048-.384.064-.728.336-1.032.288-.304.672-.456 1.152-.456.24 0 .632.072 1.176.216.56.144 1.04.224 1.44.24zm2.951-7.056v-.288c0-2.704-.832-4.056-2.496-4.056-.8 0-1.384.256-1.752.768-.352.496-.528 1.128-.528 1.896 0 1.664.784 2.496 2.352 2.496 1.024 0 1.832-.272 2.424-.816z" fill="#1D2E5B"/><path opacity=".1" stroke="#000" d="M17 38.5h31"/><path opacity=".4" d="M21.036 50.684v-8.288c0-.15.052-.275.154-.378a.537.537 0 01.392-.168c.159 0 .29.056.392.168a.514.514 0 01.154.378v8.288c0 .308.066.527.196.658a.426.426 0 01.098.266c0 .14-.051.261-.154.364a.475.475 0 01-.35.14c-.588 0-.882-.476-.882-1.428zm5.398.462c.401 0 .886-.13 1.456-.392a.433.433 0 01.196-.042c.14 0 .257.051.35.154.093.093.14.205.14.336 0 .308-.252.537-.756.686a5.3 5.3 0 01-1.512.224c-.775 0-1.386-.215-1.834-.644-.439-.439-.658-.999-.658-1.68V47.17c0-.7.224-1.27.672-1.708.448-.439 1.078-.658 1.89-.658.756 0 1.33.205 1.722.616.401.401.602.957.602 1.666 0 1.381-.789 2.072-2.366 2.072-.457 0-.933-.042-1.428-.126v.826c0 .401.13.719.392.952.261.224.64.336 1.134.336zm1.19-4.06c0-.859-.425-1.288-1.274-1.288-.448 0-.803.117-1.064.35-.252.224-.378.532-.378.924v1.064c.485.065.975.098 1.47.098.485 0 .812-.103.98-.308.177-.215.266-.495.266-.84zm7.302-1.554l-1.904 5.922c-.15.439-.388.658-.714.658a.677.677 0 01-.448-.14c-.103-.103-.192-.27-.266-.504l-1.946-5.978a.402.402 0 01.098-.434.556.556 0 01.434-.21c.242 0 .406.121.49.364l1.638 5.278 1.61-5.278c.084-.243.247-.364.49-.364.168 0 .308.07.42.21.112.14.144.299.098.476zm3.553 5.614c.401 0 .886-.13 1.456-.392a.433.433 0 01.196-.042c.14 0 .256.051.35.154.093.093.14.205.14.336 0 .308-.252.537-.756.686a5.3 5.3 0 01-1.512.224c-.775 0-1.386-.215-1.834-.644-.439-.439-.658-.999-.658-1.68V47.17c0-.7.224-1.27.672-1.708.448-.439 1.078-.658 1.89-.658.756 0 1.33.205 1.722.616.401.401.602.957.602 1.666 0 1.381-.789 2.072-2.366 2.072a8.52 8.52 0 01-1.428-.126v.826c0 .401.13.719.392.952.261.224.639.336 1.134.336zm1.19-4.06c0-.859-.425-1.288-1.274-1.288-.448 0-.803.117-1.064.35-.252.224-.378.532-.378.924v1.064c.485.065.975.098 1.47.098.485 0 .812-.103.98-.308.177-.215.266-.495.266-.84zm2.49 3.598v-8.288c0-.15.052-.275.154-.378a.537.537 0 01.392-.168c.159 0 .29.056.392.168a.514.514 0 01.154.378v8.288c0 .308.066.527.196.658a.427.427 0 01.098.266c0 .14-.051.261-.154.364a.475.475 0 01-.35.14c-.588 0-.882-.476-.882-1.428z" fill="#000"/></svg>