<svg width="60" height="60" fill="none" xmlns="http://www.w3.org/2000/svg"><circle cx="30" cy="30" r="30" fill="#000" fill-opacity=".6"/><path d="M4.742 17.915A28 28 0 1032.36 2.1" stroke="#FF8D30" stroke-width="4" stroke-linecap="round"/><path d="M29.504 28.032c0 1.504-.568 2.744-1.704 3.72-1.12.976-2.56 1.464-4.32 1.464-1.744 0-3.192-.48-4.344-1.44-1.136-.96-1.704-2.176-1.704-3.648 0-1.68.792-3.032 2.376-4.056-1.184-.896-1.776-2.064-1.776-3.504 0-1.424.52-2.56 1.56-3.408 1.04-.848 2.328-1.272 3.864-1.272s2.824.432 3.864 1.296c1.04.848 1.56 1.944 1.56 3.288 0 1.376-.592 2.52-1.776 3.432 1.6 1.056 2.4 2.432 2.4 4.128zm-3.912-7.488c0-.512-.208-.936-.624-1.272-.4-.336-.896-.504-1.488-.504-.608 0-1.12.168-1.536.504-.4.336-.6.76-.6 1.272 0 .528.208.976.624 1.344.416.352.936.592 1.56.72.608-.144 1.104-.4 1.488-.768.384-.368.576-.8.576-1.296zm.576 7.488c0-.64-.264-1.168-.792-1.584-.512-.432-1.168-.736-1.968-.912-.784.16-1.424.464-1.92.912-.48.432-.72.96-.72 1.584 0 .64.256 1.176.768 1.608.528.432 1.176.648 1.944.648s1.408-.216 1.92-.648c.512-.448.768-.984.768-1.608zm12.48-6.84c0-1.744-.735-2.616-2.207-2.616s-2.208.872-2.208 2.616v6.768c0 .704.192 1.264.576 1.68.384.416.928.624 1.632.624.704 0 1.248-.208 1.632-.624.384-.416.576-.976.576-1.68v-6.768zm-6.36-3.936c.929-1.072 2.313-1.608 4.153-1.608 1.84 0 3.224.536 4.152 1.608.928 1.056 1.392 2.424 1.392 4.104v6.6c0 1.52-.496 2.776-1.488 3.768-.976.992-2.328 1.488-4.056 1.488-1.728 0-3.088-.496-4.08-1.488-.976-.992-1.464-2.248-1.464-3.768v-6.6c0-1.68.464-3.048 1.392-4.104zM18.036 48.684c0 1.26.532 1.428.882 1.428.28 0 .504-.224.504-.504a.462.462 0 00-.098-.266c-.168-.168-.196-.35-.196-.658v-8.288a.538.538 0 00-.546-.546.547.547 0 00-.546.546v8.288zm5.397.462c-1.008 0-1.526-.504-1.526-1.288v-.826c.49.084 1.009.126 1.428.126 1.666 0 2.366-.784 2.366-2.072 0-1.386-.77-2.282-2.323-2.282-1.666 0-2.563 1.022-2.563 2.366v2.618c0 1.316.91 2.324 2.492 2.324.757 0 2.269-.224 2.269-.91 0-.252-.21-.49-.49-.49a.45.45 0 00-.196.042c-.49.224-.869.392-1.457.392zm1.19-4.06c0 .574-.181 1.148-1.245 1.148-.28 0-.953-.028-1.47-.098v-1.064c0-.784.531-1.274 1.441-1.274.813 0 1.274.378 1.274 1.288zm7.302-1.554a.541.541 0 00-.518-.686.54.54 0 00-.49.364l-1.61 5.278-1.637-5.278a.516.516 0 00-.49-.364c-.322 0-.645.308-.532.644l1.945 5.978c.154.448.337.644.715.644.364 0 .56-.196.713-.658l1.904-5.922zm3.553 5.614c-1.008 0-1.526-.504-1.526-1.288v-.826c.49.084 1.009.126 1.428.126 1.666 0 2.366-.784 2.366-2.072 0-1.386-.77-2.282-2.324-2.282-1.665 0-2.561 1.022-2.561 2.366v2.618c0 1.316.91 2.324 2.492 2.324.755 0 2.267-.224 2.267-.91 0-.252-.21-.49-.49-.49a.45.45 0 00-.196.042c-.49.224-.867.392-1.456.392zm1.19-4.06c0 .574-.181 1.148-1.245 1.148-.28 0-.953-.028-1.47-.098v-1.064c0-.784.531-1.274 1.441-1.274.813 0 1.275.378 1.275 1.288zm2.491 3.598c0 1.26.532 1.428.882 1.428.28 0 .504-.224.504-.504a.462.462 0 00-.098-.266c-.168-.168-.196-.35-.196-.658v-8.288a.538.538 0 00-.546-.546.547.547 0 00-.546.546v8.288z" fill="#fff"/><path opacity=".3" stroke="#fff" d="M15 36.5h30"/></svg>