<svg width="95" height="95" fill="none" xmlns="http://www.w3.org/2000/svg"><path fill-rule="evenodd" clip-rule="evenodd" d="M5.479 25.333A47.293 47.293 0 000 47.5C0 73.734 21.267 95 47.5 95 73.734 95 95 73.734 95 47.5 95 21.267 73.734 0 47.5 0v3C72.077 3 92 22.923 92 47.5S72.077 92 47.5 92 3 72.077 3 47.5c0-8.071 2.149-15.64 5.905-22.167H5.48z" fill="#FF8D30"/><path d="M45.715 43.717c0 2.382-.9 4.345-2.698 5.89-1.774 1.546-4.054 2.318-6.84 2.318-2.762 0-5.054-.76-6.878-2.28C27.5 48.125 26.6 46.2 26.6 43.87c0-2.66 1.254-4.8 3.762-6.422-1.875-1.418-2.812-3.268-2.812-5.548 0-2.254.823-4.053 2.47-5.396 1.646-1.342 3.686-2.014 6.118-2.014 2.432 0 4.471.684 6.118 2.052 1.646 1.343 2.47 3.078 2.47 5.206 0 2.179-.938 3.99-2.812 5.434 2.533 1.672 3.8 3.851 3.8 6.536zM39.52 31.861c0-.81-.33-1.482-.988-2.014-.634-.532-1.419-.798-2.356-.798-.963 0-1.774.266-2.432.798-.634.532-.95 1.204-.95 2.014 0 .836.329 1.546.988 2.128.658.558 1.482.938 2.47 1.14.962-.228 1.748-.633 2.356-1.216.608-.582.912-1.266.912-2.052zm.912 11.856c0-1.013-.418-1.849-1.254-2.508-.811-.684-1.85-1.165-3.116-1.444-1.242.254-2.255.735-3.04 1.444-.76.684-1.14 1.52-1.14 2.508 0 1.014.405 1.862 1.216 2.546.836.684 1.862 1.026 3.078 1.026 1.216 0 2.229-.342 3.04-1.026.81-.709 1.216-1.558 1.216-2.546zm19.761-10.83c0-2.761-1.165-4.142-3.496-4.142-2.33 0-3.496 1.381-3.496 4.142v10.716c0 1.115.304 2.002.912 2.66.608.659 1.47.988 2.584.988 1.115 0 1.976-.329 2.584-.988.608-.658.912-1.545.912-2.66V32.887zm-10.07-6.232c1.47-1.697 3.66-2.546 6.574-2.546 2.913 0 5.105.849 6.574 2.546 1.47 1.672 2.204 3.838 2.204 6.498v10.45c0 2.407-.785 4.396-2.356 5.966-1.545 1.571-3.686 2.356-6.422 2.356-2.736 0-4.89-.785-6.46-2.356-1.545-1.57-2.318-3.559-2.318-5.966v-10.45c0-2.66.735-4.826 2.204-6.498z" fill="#fff"/><path opacity=".3" stroke="#fff" stroke-width="2" d="M21.583 57.417h50"/><path d="M32.332 76.308V65.652a.66.66 0 01.198-.486.69.69 0 01.504-.216c.204 0 .372.072.504.216a.66.66 0 01.198.486v10.656c0 .396.084.678.252.846a.549.549 0 01.126.342.64.64 0 01-.198.468.61.61 0 01-.45.18c-.756 0-1.134-.612-1.134-1.836zm6.94.594c.516 0 1.14-.168 1.872-.504a.557.557 0 01.252-.054c.18 0 .33.066.45.198.12.12.18.264.18.432 0 .396-.324.69-.972.882a6.813 6.813 0 01-1.944.288c-.996 0-1.782-.276-2.358-.828-.564-.564-.846-1.284-.846-2.16V71.79c0-.9.288-1.632.864-2.196.576-.564 1.386-.846 2.43-.846.972 0 1.71.264 2.214.792.516.516.774 1.23.774 2.142 0 1.776-1.014 2.664-3.042 2.664-.588 0-1.2-.054-1.836-.162v1.062c0 .516.168.924.504 1.224.336.288.822.432 1.458.432zm1.53-5.22c0-1.104-.546-1.656-1.638-1.656-.576 0-1.032.15-1.368.45-.324.288-.486.684-.486 1.188v1.368a14.15 14.15 0 001.89.126c.624 0 1.044-.132 1.26-.396.228-.276.342-.636.342-1.08zm9.388-1.998l-2.448 7.614c-.192.564-.498.846-.918.846-.24 0-.432-.06-.576-.18-.132-.132-.246-.348-.342-.648l-2.502-7.686c-.072-.204-.03-.39.126-.558a.715.715 0 01.558-.27c.312 0 .522.156.63.468l2.106 6.786 2.07-6.786c.108-.312.318-.468.63-.468.216 0 .396.09.54.27a.66.66 0 01.126.612zm4.568 7.218c.516 0 1.14-.168 1.872-.504a.557.557 0 01.252-.054c.18 0 .33.066.45.198.12.12.18.264.18.432 0 .396-.324.69-.972.882a6.813 6.813 0 01-1.944.288c-.996 0-1.782-.276-2.358-.828-.564-.564-.846-1.284-.846-2.16V71.79c0-.9.288-1.632.864-2.196.576-.564 1.386-.846 2.43-.846.972 0 1.71.264 2.214.792.516.516.774 1.23.774 2.142 0 1.776-1.014 2.664-3.042 2.664-.588 0-1.2-.054-1.836-.162v1.062c0 .516.168.924.504 1.224.336.288.822.432 1.458.432zm1.53-5.22c0-1.104-.546-1.656-1.638-1.656-.576 0-1.032.15-1.368.45-.324.288-.486.684-.486 1.188v1.368a14.15 14.15 0 001.89.126c.624 0 1.044-.132 1.26-.396.228-.276.342-.636.342-1.08zm3.202 4.626V65.652a.66.66 0 01.198-.486.69.69 0 01.504-.216c.204 0 .372.072.504.216a.66.66 0 01.198.486v10.656c0 .396.084.678.252.846a.549.549 0 01.126.342.64.64 0 01-.198.468.61.61 0 01-.45.18c-.756 0-1.134-.612-1.134-1.836z" fill="#fff"/></svg>