<svg width="46" height="45" viewBox="0 0 46 45" fill="none" xmlns="http://www.w3.org/2000/svg">
<path d="M23.5145 1.50818C27.9499 1.63199 32.2321 3.15753 35.7467 5.86592C39.2614 8.57431 41.8278 12.3264 43.0779 16.5838C44.3279 20.8412 44.1973 25.3851 42.7048 29.5637C41.2123 33.7423 38.4346 37.3407 34.7702 39.8428C31.1059 42.3449 26.7431 43.6219 22.3079 43.4908C17.8727 43.3597 13.593 41.8271 10.0829 39.113C6.57268 36.3988 4.01241 32.6425 2.76936 28.3831C1.52632 24.1236 1.66439 19.5799 3.16376 15.4038" stroke="#FF8D30" stroke-width="3" stroke-linecap="round"/>
<path d="M22.9325 25.7971C22.9325 27.3011 22.3645 28.5411 21.2285 29.5171C20.1085 30.4931 18.6685 30.9811 16.9085 30.9811C15.1645 30.9811 13.7165 30.5011 12.5645 29.5411C11.4285 28.5811 10.8605 27.3651 10.8605 25.8931C10.8605 24.2131 11.6525 22.8611 13.2365 21.8371C12.0525 20.9411 11.4605 19.7731 11.4605 18.3331C11.4605 16.9091 11.9805 15.7731 13.0205 14.9251C14.0605 14.0771 15.3485 13.6531 16.8845 13.6531C18.4205 13.6531 19.7085 14.0851 20.7485 14.9491C21.7885 15.7971 22.3085 16.8931 22.3085 18.2371C22.3085 19.6131 21.7165 20.7571 20.5325 21.6691C22.1325 22.7251 22.9325 24.1011 22.9325 25.7971ZM19.0205 18.3091C19.0205 17.7971 18.8125 17.3731 18.3965 17.0371C17.9965 16.7011 17.5005 16.5331 16.9085 16.5331C16.3005 16.5331 15.7885 16.7011 15.3725 17.0371C14.9725 17.3731 14.7725 17.7971 14.7725 18.3091C14.7725 18.8371 14.9805 19.2851 15.3965 19.6531C15.8125 20.0051 16.3325 20.2451 16.9565 20.3731C17.5645 20.2291 18.0605 19.9731 18.4445 19.6051C18.8285 19.2371 19.0205 18.8051 19.0205 18.3091ZM19.5965 25.7971C19.5965 25.1571 19.3325 24.6291 18.8045 24.2131C18.2925 23.7811 17.6365 23.4771 16.8365 23.3011C16.0525 23.4611 15.4125 23.7651 14.9165 24.2131C14.4365 24.6451 14.1965 25.1731 14.1965 25.7971C14.1965 26.4371 14.4525 26.9731 14.9645 27.4051C15.4925 27.8371 16.1405 28.0531 16.9085 28.0531C17.6765 28.0531 18.3165 27.8371 18.8285 27.4051C19.3405 26.9571 19.5965 26.4211 19.5965 25.7971ZM32.0774 18.9571C32.0774 17.2131 31.3414 16.3411 29.8694 16.3411C28.3974 16.3411 27.6614 17.2131 27.6614 18.9571V25.7251C27.6614 26.4291 27.8534 26.9891 28.2374 27.4051C28.6214 27.8211 29.1654 28.0291 29.8694 28.0291C30.5734 28.0291 31.1174 27.8211 31.5014 27.4051C31.8854 26.9891 32.0774 26.4291 32.0774 25.7251V18.9571ZM25.7174 15.0211C26.6454 13.9491 28.0294 13.4131 29.8694 13.4131C31.7094 13.4131 33.0934 13.9491 34.0214 15.0211C34.9494 16.0771 35.4134 17.4451 35.4134 19.1251V25.7251C35.4134 27.2451 34.9174 28.5011 33.9254 29.4931C32.9494 30.4851 31.5974 30.9811 29.8694 30.9811C28.1414 30.9811 26.7814 30.4851 25.7894 29.4931C24.8134 28.5011 24.3254 27.2451 24.3254 25.7251V19.1251C24.3254 17.4451 24.7894 16.0771 25.7174 15.0211Z" fill="#1D2E5B"/>
</svg>
